<svg xmlns="http://www.w3.org/2000/svg" width="40.32" height="28.561" viewBox="0 0 40.32 28.561">
  <path id="Icon_map-swimming" data-name="Icon map-swimming" d="M41.16,33.6a5.983,5.983,0,0,1-2.478-.538,6.146,6.146,0,0,0-5.118,0,5.983,5.983,0,0,1-4.959,0,6.157,6.157,0,0,0-5.121,0,6,6,0,0,1-4.967,0,6.132,6.132,0,0,0-5.111,0,6,6,0,0,1-4.966,0A6.265,6.265,0,0,0,5.88,32.5a6.276,6.276,0,0,0-2.551.558A6.051,6.051,0,0,1,.84,33.6V29.907a6.275,6.275,0,0,0,2.489-.53,6.051,6.051,0,0,1,5.111,0,6.081,6.081,0,0,0,4.966,0,6.05,6.05,0,0,1,5.111,0,6.083,6.083,0,0,0,4.967,0,6.139,6.139,0,0,1,2.561-.566,6.217,6.217,0,0,1,2.56.566,6.063,6.063,0,0,0,4.959,0,6.063,6.063,0,0,1,5.116,0,6.2,6.2,0,0,0,2.48.53ZM35.32,23.154a4.765,4.765,0,1,0-4.8-4.77A4.669,4.669,0,0,0,35.32,23.154ZM7.384,25.835a5.919,5.919,0,0,1,1.057.366,5.995,5.995,0,0,0,4.966,0,6.033,6.033,0,0,1,5.111,0,5.995,5.995,0,0,0,4.966,0,6.275,6.275,0,0,1,2.561-.568,6.346,6.346,0,0,1,2.56.568,6.064,6.064,0,0,0,2.48.538,6.184,6.184,0,0,0,1.845-.291l-8-14.327,9.306-1.686a2.755,2.755,0,0,0,2.357-2.687,2.723,2.723,0,0,0-2.74-2.709l-.311.009-14.376,2.6a2.569,2.569,0,0,0-1.584,3.5l.123.29,3.751,6.723L7.384,25.835Z" transform="translate(-0.84 -5.039)" fill="#fff"/>
</svg>
