<svg xmlns="http://www.w3.org/2000/svg" width="21.331" height="21.331" viewBox="0 0 21.331 21.331">
  <path id="Icon_awesome-plus" data-name="Icon awesome-plus" d="M19.807,10.63H12.951V3.774A1.524,1.524,0,0,0,11.427,2.25H9.9A1.524,1.524,0,0,0,8.38,3.774V10.63H1.524A1.524,1.524,0,0,0,0,12.154v1.524A1.524,1.524,0,0,0,1.524,15.2H8.38v6.856A1.524,1.524,0,0,0,9.9,23.581h1.524a1.524,1.524,0,0,0,1.524-1.524V15.2h6.856a1.524,1.524,0,0,0,1.524-1.524V12.154A1.524,1.524,0,0,0,19.807,10.63Z" transform="translate(0 -2.25)" fill="#fff"/>
</svg>
