<svg xmlns="http://www.w3.org/2000/svg" width="42" height="32.666" viewBox="0 0 42 32.666">
  <path id="Icon_awesome-spa" data-name="Icon awesome-spa" d="M41.435,14.292c-2.117.009-9.844.449-15.592,6.052A18.737,18.737,0,0,0,21,27.261a18.737,18.737,0,0,0-4.842-6.917C10.41,14.741,2.683,14.3.565,14.292a.555.555,0,0,0-.565.57A20.192,20.192,0,0,0,6.473,29.394,19.354,19.354,0,0,0,21,35.292a19.352,19.352,0,0,0,14.527-5.9A20.19,20.19,0,0,0,42,14.862a.555.555,0,0,0-.565-.57ZM21,22.356a20.061,20.061,0,0,1,3.215-3.684,21.822,21.822,0,0,1,4.394-3.294A24.052,24.052,0,0,0,21.554,2.82a.876.876,0,0,0-1.1,0A24.052,24.052,0,0,0,13.4,15.367,21.438,21.438,0,0,1,17.714,18.6,20.618,20.618,0,0,1,21,22.356Z" transform="translate(0 -2.625)" fill="#fff"/>
</svg>
