<svg xmlns="http://www.w3.org/2000/svg" width="30.72" height="26.929" viewBox="0 0 30.72 26.929"><path d="M31.292,9.7,28.774,29.44H20.268L17.759,9.6H28.144L30.2,2.511l1.164.351L29.391,9.684ZM16.557,21.12s.318-2.56-4.093-2.56H5.439c-4.4,0-4.093,2.56-4.093,2.56ZM1.347,26.88s-.312,2.56,4.093,2.56h7.025c4.411,0,4.093-2.56,4.093-2.56ZM15.9,25.6A1.472,1.472,0,0,0,17.2,24a1.47,1.47,0,0,0-1.3-1.6H1.946A1.473,1.473,0,0,0,.64,24a1.475,1.475,0,0,0,1.306,1.6H15.9Z" transform="translate(-0.64 -2.511)" fill="#898989"/></svg>