<svg xmlns="http://www.w3.org/2000/svg" width="40" height="28" viewBox="0 0 40 28"><path d="M39,26H38a5.271,5.271,0,0,1-3.506-1.119A2.961,2.961,0,0,0,32.509,24H31.49a2.961,2.961,0,0,0-1.986.881A5.264,5.264,0,0,1,26,26a5.271,5.271,0,0,1-3.506-1.119A2.961,2.961,0,0,0,20.509,24H19.49a2.961,2.961,0,0,0-1.986.881A5.264,5.264,0,0,1,14,26a5.271,5.271,0,0,1-3.506-1.119A2.961,2.961,0,0,0,8.509,24H7.49a2.961,2.961,0,0,0-1.986.881A5.264,5.264,0,0,1,2,26H1a1,1,0,0,0-1,1v2a1,1,0,0,0,1,1H2a9.319,9.319,0,0,0,6-1.99A9.315,9.315,0,0,0,14,30a9.319,9.319,0,0,0,6-1.99A9.315,9.315,0,0,0,26,30a9.319,9.319,0,0,0,6-1.99A9.315,9.315,0,0,0,38,30h1a1,1,0,0,0,1-1V27A1,1,0,0,0,39,26ZM14,24V18H26v6a3.424,3.424,0,0,0,2.149-.589A5.4,5.4,0,0,1,30,22.282V8a2,2,0,0,1,4,0V9a1,1,0,0,0,1,1h2a1,1,0,0,0,1-1V8A6,6,0,0,0,26,8v6H14V8a2,2,0,0,1,4,0V9a1,1,0,0,0,1,1h2a1,1,0,0,0,1-1V8A6,6,0,0,0,10,8V22.281a5.412,5.412,0,0,1,1.851,1.129A3.419,3.419,0,0,0,14,24Z" transform="translate(0 -2)" fill="#898989"/></svg>