<svg xmlns="http://www.w3.org/2000/svg" width="32" height="22.4" viewBox="0 0 32 22.4">
  <path id="Icon_awesome-wifi" data-name="Icon awesome-wifi" d="M31.746,8.394a23.248,23.248,0,0,0-31.491,0A.8.8,0,0,0,.237,9.543l1.712,1.7a.812.812,0,0,0,1.12.019,19.183,19.183,0,0,1,25.863,0,.812.812,0,0,0,1.12-.019l1.712-1.7a.8.8,0,0,0-.018-1.149ZM16,18.25a3.2,3.2,0,1,0,3.2,3.2A3.2,3.2,0,0,0,16,18.25Zm10.134-4.18a15.35,15.35,0,0,0-20.267,0,.79.79,0,0,0-.029,1.158l1.722,1.7a.816.816,0,0,0,1.1.04,11.261,11.261,0,0,1,14.675,0,.816.816,0,0,0,1.1-.04l1.722-1.7A.79.79,0,0,0,26.134,14.071Z" transform="translate(0 -2.25)" fill="#898989"/>
</svg>
