<svg xmlns="http://www.w3.org/2000/svg" width="37" height="32.889" viewBox="0 0 37 32.889">
  <path id="Icon_awesome-hotel" data-name="Icon awesome-hotel" d="M35.972,4.111A1.027,1.027,0,0,0,37,3.083V1.028A1.027,1.027,0,0,0,35.972,0H1.028A1.027,1.027,0,0,0,0,1.028V3.083A1.027,1.027,0,0,0,1.028,4.111H2.054V28.778H1.028A1.027,1.027,0,0,0,0,29.806v2.056a1.027,1.027,0,0,0,1.028,1.028H16.444V27.75a1.031,1.031,0,0,1,1.028-1.028h2.056a1.031,1.031,0,0,1,1.028,1.028v5.139H35.972A1.027,1.027,0,0,0,37,31.861V29.806a1.027,1.027,0,0,0-1.028-1.028H34.944V4.111ZM16.444,6.989a.884.884,0,0,1,.822-.822h2.467a.884.884,0,0,1,.822.822V9.456a.884.884,0,0,1-.822.822H17.267a.884.884,0,0,1-.822-.822V6.989Zm0,6.167a.884.884,0,0,1,.822-.822h2.467a.884.884,0,0,1,.822.822v2.467a.884.884,0,0,1-.822.822H17.267a.884.884,0,0,1-.822-.822ZM8.222,6.989a.884.884,0,0,1,.822-.822h2.467a.884.884,0,0,1,.822.822V9.456a.884.884,0,0,1-.822.822H9.044a.884.884,0,0,1-.822-.822V6.989Zm3.289,9.456H9.044a.884.884,0,0,1-.822-.822V13.156a.884.884,0,0,1,.822-.822h2.467a.884.884,0,0,1,.822.822v2.467A.884.884,0,0,1,11.511,16.444Zm.822,8.222a6.167,6.167,0,0,1,12.333,0Zm16.444-9.044a.884.884,0,0,1-.822.822H25.489a.884.884,0,0,1-.822-.822V13.156a.884.884,0,0,1,.822-.822h2.467a.884.884,0,0,1,.822.822Zm0-6.167a.884.884,0,0,1-.822.822H25.489a.884.884,0,0,1-.822-.822V6.989a.884.884,0,0,1,.822-.822h2.467a.884.884,0,0,1,.822.822Z" fill="#fff"/>
</svg>
